<svg width="101" height="101" viewBox="0 0 101 101" fill="none" xmlns="http://www.w3.org/2000/svg">
<mask id="mask0_2009_79" style="mask-type:alpha" maskUnits="userSpaceOnUse" x="0" y="0" width="101" height="101">
<circle cx="50.5" cy="50.5" r="50.5" fill="#C4C4C4" style="fill:#C4C4C4;fill:color(display-p3 0.7686 0.7686 0.7686);fill-opacity:1;"/>
</mask>
<g mask="url(#mask0_2009_79)">
<path d="M2.42136 126.57C1.94239 126.972 1.45194 127.653 1.50357 128.359C1.5863 129.571 2.95523 129.733 4.17378 129.687C22.2712 128.689 34.2727 128.146 34.4237 128.071C77.9135 125.81 86.6233 125.823 95.3023 120.612C97.4333 119.305 98.9304 117.896 99.7536 116.414C100.746 114.496 100.577 112.443 99.2975 110.926C98.4486 109.911 97.1708 109.223 95.8626 108.679C95.6244 108.478 95.629 108.471 95.3324 108.471C91.773 107.091 87.9679 106.195 84.2184 105.654C86.678 102.833 87.7296 98.6343 86.893 94.8051C86.7898 94.3371 86.0728 94.4848 86.1759 94.963C87.0363 98.9067 85.8216 103.311 82.7199 106.143C80.5844 108.308 77.4228 110.01 74.6117 111.279C67.6461 115.08 66.0771 116.384 61.4385 118.676C61.4184 118.686 61.3897 118.707 61.3668 118.727C61.0196 118.872 54.2856 122.19 44.8321 125.028C39.9205 125.432 35.0203 125.956 30.118 126.463C23.401 119.415 23.5533 106.982 34.7561 96.941C44.5117 88.0372 58.0495 84.8043 67.7813 75.5237C67.8405 75.7391 67.7697 75.5042 68.1355 76.5864C69.6038 80.9344 70.6971 83.0665 74.6146 84.7338C75.052 84.9253 75.3552 84.2522 74.9014 84.0567C69.8482 81.9148 69.9983 78.784 67.9588 73.9888C73.5821 68.7642 70.6641 64.6725 70.0371 61.2026C69.6874 59.3905 70.025 57.0791 71.6461 56.1712C73.8727 55.1661 77.0768 56.5534 78.4664 50.1069C80.8045 37.4759 81.1309 16.8238 80.4856 5.40866C80.2131 0.572426 79.8718 -5.4474 75.389 -8.23495C75.0046 -8.47167 74.5916 -8.70982 74.1786 -8.94654C74.0037 -9.04553 73.78 -8.98958 73.6767 -8.81025C73.4245 -8.3705 73.9783 -8.24399 75.0018 -7.61087C79.1605 -5.02418 79.4904 0.783321 79.7542 5.45027C80.3586 16.1956 80.0225 42.9742 77.3898 51.2328C75.5024 53.7473 72.3356 52.1143 71.5572 49.1321C71.0392 47.1786 71.0356 48.5789 75.5861 9.75209C76.0716 5.69882 76.4365 1.19274 74.013 -2.09335C71.9709 3.5775 72.2462 9.75514 72.252 15.7823C72.2331 43.7461 67.0899 53.1032 69.5079 57.9913C67.6191 64.3173 76.272 68.4236 63.4634 76.4143C42.3429 89.3783 24.1273 87.4369 23.4876 87.5242C22.0307 87.4919 20.6919 87.1113 19.4522 86.411C19.0951 84.4344 19.3823 82.3281 20.3069 80.5493C21.1433 78.9353 21.7116 77.2035 22.5806 75.5877C27.8414 66.0475 35.7736 65.5919 42.2307 61.8643C45.171 60.2054 45.085 58.1658 42.8273 56.7569C36.1517 52.7696 27.9556 56.3753 28.637 54.1695C28.7248 53.8853 29.0776 53.8013 29.3709 53.7515C31.8698 53.327 43.4851 47.8096 45.2591 45.7599C49.7926 40.5164 38.1928 37.5251 31.1476 38.5692C28.5442 38.9467 26.3897 39.6141 24.3058 38.3479C24.4339 38.0534 24.2821 38.3718 24.7439 37.3714C27.0505 32.7711 30.3585 28.1332 30.3826 27.7119C30.4715 27.5768 30.5532 27.4384 30.64 27.3019C32.5565 26.351 33.9235 24.8626 35.7779 24.3831C36.7154 24.1399 37.7196 24.5813 38.4742 23.954C39.6064 23.0128 39.8531 21.3954 40.1765 20.0036C40.7562 17.3655 42.6953 12.2683 45.1734 11.2041C47.5006 10.1457 50.9031 11.5751 52.1512 16.5233C53.5343 21.5536 54.789 17.4181 66.3874 15.0593C70.115 14.3715 71.483 12.694 69.078 9.25803C62.4336 0.200135 52.9456 -2.98103 42.0321 2.71294C39.3053 4.14975 36.7971 5.9723 34.3578 7.88112C36.4372 5.14956 36.7335 3.16994 39.5663 -0.319933C46.3115 -8.82659 56.4168 -12.6964 66.3802 -10.9106C66.8503 -10.814 66.9946 -11.5462 66.5122 -11.6337C56.4725 -13.441 46.008 -9.63197 38.9955 -0.779023C35.9099 3.01835 36.0733 4.61578 32.8864 8.59647L32.8836 8.59504C28.6456 13.9065 32.8447 17.4287 32.4247 21.8039C32.1896 24.0352 29.6573 27.2903 29.6426 27.5842C23.684 37.486 22.2457 38.713 22.5096 45.6566C22.636 49.0672 22.4933 49.7394 21.9073 52.015C19.945 59.5405 21.2346 70.5329 17.9321 80.4098C17.2582 82.4248 16.5915 83.8811 17.3126 85.1829C17.5833 86.0291 18.2252 86.4854 18.8815 86.9346C20.6901 88.1124 22.7917 88.1601 23.5013 88.2588C26.0715 93.5268 22.0204 96.7321 18.3856 110.827C9.75934 110.943 0.420016 111.096 -7.05201 113.992C-14.2243 116.771 -13.378 120.823 -6.63326 122.623C-1.94741 123.881 3.50289 123.158 3.8927 124.386C4.03037 124.831 3.4797 125.649 2.42136 126.57ZM61.8429 119.296C65.0024 117.716 70.5241 114.343 74.9846 111.916C79.4635 109.945 81.7158 108.16 83.5964 106.298C87.1983 106.78 90.953 107.649 94.4526 108.92C96.1914 111.738 97.0697 115.396 95.4485 118.261C93.6556 121.428 89.6227 122.423 86.0167 122.912C73.5985 124.597 61.1828 123.907 48.0846 124.788C54.308 122.705 61.5615 119.591 61.8429 119.296ZM18.1852 111.566C17.4747 114.417 16.5513 117.604 17.4847 120.629C18.2239 123.377 20.512 125.784 23.5593 127.11C20.2983 127.397 17.0326 127.635 13.7612 127.755C12.4734 127.802 10.6349 128.195 9.46688 127.566C8.43256 127.008 7.54596 125.79 7.30934 124.656C7.1982 124.125 7.19462 123.57 7.00998 123.06C6.51774 121.704 4.92666 121.102 3.49117 120.962C2.05568 120.823 0.549922 120.968 -0.775863 120.399C-2.81294 119.524 -3.84618 117.18 -4.0197 114.969C-4.05537 114.512 -4.06995 114.137 -4.37678 113.864C2.38183 111.816 10.6527 111.67 18.1852 111.566Z" fill="#C4C4C4" style="fill:#C4C4C4;fill:color(display-p3 0.7686 0.7686 0.7686);fill-opacity:1;"/>
<path d="M78.5324 85.4365C78.3431 85.3662 78.128 85.4552 78.0563 85.6446C77.6671 86.6329 81.1461 86.1585 84.2944 90.696C84.5709 91.0942 85.1732 90.6781 84.8967 90.2771C83.1892 87.8085 81.1155 86.4431 78.5324 85.4365Z" fill="#C4C4C4" style="fill:#C4C4C4;fill:color(display-p3 0.7686 0.7686 0.7686);fill-opacity:1;"/>
<path d="M49.9703 68.3735C47.4297 65.4429 41.0471 67.2848 43.9825 69.6887C46.4472 71.7072 52.2085 70.9529 49.9703 68.3735Z" fill="#C4C4C4" style="fill:#C4C4C4;fill:color(display-p3 0.7686 0.7686 0.7686);fill-opacity:1;"/>
<path d="M41.1967 73.5701C42.6229 74.7388 45.9223 74.2975 44.6356 72.8149C43.1754 71.1317 39.5111 72.1895 41.1967 73.5701Z" fill="#C4C4C4" style="fill:#C4C4C4;fill:color(display-p3 0.7686 0.7686 0.7686);fill-opacity:1;"/>
</g>
</svg>
