<svg width="1024" height="1024" viewBox="0 0 1024 1024" fill="none" xmlns="http://www.w3.org/2000/svg">
<mask id="mask0_1_17" style="mask-type:alpha" maskUnits="userSpaceOnUse" x="102" y="104" width="821" height="820">
<circle cx="512.5" cy="514" r="410" fill="#C4C4C4" style="fill:#C4C4C4;fill:color(display-p3 0.7686 0.7686 0.7686);fill-opacity:1;"/>
</mask>
<g mask="url(#mask0_1_17)">
<path d="M122.158 1131.6C118.269 1134.86 114.287 1140.39 114.706 1146.12C115.378 1155.97 126.492 1157.27 136.385 1156.91C283.315 1148.8 380.752 1144.39 381.979 1143.78C735.064 1125.43 805.777 1125.53 876.24 1083.22C893.541 1072.61 905.696 1061.17 912.379 1049.14C920.436 1033.57 919.062 1016.9 908.677 1004.59C901.784 996.347 891.411 990.756 880.789 986.341C878.855 984.71 878.893 984.658 876.485 984.655C847.587 973.447 816.694 966.173 786.253 961.787C806.221 938.882 814.759 904.793 807.967 873.704C807.129 869.904 801.308 871.103 802.145 874.985C809.13 907.004 799.268 942.761 774.086 965.756C756.749 983.334 731.08 997.153 708.257 1007.45C651.705 1038.31 638.967 1048.9 601.306 1067.51C601.143 1067.59 600.911 1067.76 600.724 1067.92C597.906 1069.1 543.233 1096.03 466.483 1119.08C426.606 1122.36 386.822 1126.61 347.021 1130.73C292.487 1073.51 293.724 972.569 384.677 891.045C463.881 818.756 573.792 792.509 652.803 717.162C653.283 718.91 652.708 717.003 655.678 725.79C667.599 761.09 676.475 778.4 708.281 791.937C711.832 793.492 714.293 788.027 710.609 786.439C669.583 769.05 670.802 743.631 654.243 704.7C699.898 662.282 676.207 629.063 671.117 600.891C668.278 586.179 671.018 567.414 684.18 560.042C702.258 551.882 728.271 563.145 739.553 510.808C758.536 408.259 761.186 240.588 755.946 147.911C753.734 108.646 750.963 59.7725 714.568 37.141C711.447 35.2191 708.094 33.2856 704.741 31.3637C703.321 30.56 701.505 31.0143 700.666 32.4703C698.619 36.0405 703.115 37.0676 711.424 42.2078C745.188 63.2086 747.866 110.359 750.009 148.249C754.915 235.488 752.187 452.898 730.812 519.948C715.488 540.363 689.778 527.105 683.458 502.893C679.253 487.033 679.223 498.402 716.169 183.174C720.11 150.267 723.073 113.683 703.396 87.0035C686.817 133.044 689.053 183.199 689.099 232.133C688.946 459.165 647.189 535.134 666.821 574.819C651.486 626.179 721.737 659.517 617.746 724.392C446.273 829.645 298.384 813.883 293.191 814.592C281.362 814.329 270.493 811.24 260.428 805.553C257.529 789.506 259.86 772.405 267.367 757.964C274.158 744.86 278.771 730.8 285.827 717.681C328.538 640.227 392.938 636.527 445.362 606.264C469.234 592.796 468.536 576.236 450.206 564.798C396.008 532.425 329.465 561.699 334.997 543.791C335.71 541.483 338.574 540.802 340.955 540.397C361.244 536.951 455.546 492.156 469.949 475.515C506.756 432.944 412.579 408.658 355.381 417.135C334.244 420.2 316.752 425.618 299.833 415.338C300.873 412.947 299.641 415.532 303.39 407.411C322.117 370.061 348.974 332.407 349.169 328.986C349.891 327.89 350.555 326.766 351.259 325.658C366.819 317.938 377.917 305.854 392.973 301.961C400.584 299.987 408.737 303.57 414.864 298.477C424.056 290.836 426.059 277.704 428.684 266.405C433.391 244.987 449.134 203.603 469.254 194.963C488.147 186.37 515.772 197.975 525.905 238.149C537.134 278.988 547.321 245.413 641.486 226.262C671.749 220.678 682.856 207.059 663.331 179.163C609.385 105.624 532.355 79.7966 443.75 126.025C421.611 137.69 401.248 152.487 381.443 167.984C398.326 145.807 400.732 129.735 423.73 101.402C478.493 32.3376 560.537 0.919135 641.428 15.418C645.244 16.2026 646.416 10.2575 642.499 9.54755C560.989 -5.12585 476.029 25.7988 419.096 97.6742C394.045 128.504 395.371 141.474 369.498 173.792L369.474 173.781C335.067 216.903 369.159 245.5 365.749 281.021C363.841 299.136 343.281 325.564 343.162 327.95C294.785 408.341 283.108 418.303 285.25 474.676C286.276 502.367 285.118 507.823 280.36 526.299C264.428 587.397 274.898 676.642 248.086 756.831C242.615 773.191 237.203 785.013 243.057 795.583C245.254 802.453 250.466 806.158 255.794 809.805C270.478 819.367 287.54 819.754 293.301 820.556C314.168 863.325 281.279 889.349 251.768 1003.79C181.733 1004.73 105.909 1005.96 45.2451 1029.48C-12.9852 1052.04 -6.11442 1084.94 48.6448 1099.55C86.6883 1109.76 130.938 1103.9 134.103 1113.87C135.221 1117.48 130.75 1124.12 122.158 1131.6ZM604.59 1072.54C630.241 1059.71 675.071 1032.33 711.285 1012.63C747.649 996.62 765.934 982.133 781.203 967.013C810.445 970.924 840.929 977.978 869.342 988.302C883.459 1011.17 890.59 1040.88 877.428 1064.14C862.871 1089.85 830.129 1097.93 800.853 1101.9C700.031 1115.58 599.231 1109.97 492.888 1117.13C543.415 1100.21 602.305 1074.93 604.59 1072.54ZM250.141 1009.78C244.373 1032.93 236.876 1058.8 244.454 1083.36C250.456 1105.67 269.032 1125.21 293.773 1135.98C267.297 1138.31 240.783 1140.24 214.223 1141.22C203.768 1141.6 188.842 1144.79 179.359 1139.68C170.961 1135.15 163.763 1125.27 161.842 1116.05C160.94 1111.75 160.911 1107.24 159.412 1103.1C155.415 1092.09 142.498 1087.2 130.843 1086.07C119.189 1084.94 106.964 1086.11 96.1999 1081.5C79.6613 1074.4 71.2726 1055.36 69.8638 1037.41C69.5742 1033.7 69.4558 1030.66 66.9648 1028.44C121.837 1011.81 188.986 1010.63 250.141 1009.78Z" fill="#2E60D6" style="fill:#2E60D6;fill:color(display-p3 0.1804 0.3765 0.8392);fill-opacity:1;"/>
<path d="M740.089 797.644C738.552 797.074 736.806 797.796 736.223 799.333C733.064 807.357 761.309 803.506 786.87 840.345C789.114 843.578 794.004 840.199 791.76 836.944C777.897 816.902 761.061 805.816 740.089 797.644Z" fill="#2E60D6" style="fill:#2E60D6;fill:color(display-p3 0.1804 0.3765 0.8392);fill-opacity:1;"/>
<path d="M508.199 659.112C487.572 635.319 435.753 650.273 459.584 669.79C479.595 686.178 526.37 680.054 508.199 659.112Z" fill="#2E60D6" style="fill:#2E60D6;fill:color(display-p3 0.1804 0.3765 0.8392);fill-opacity:1;"/>
<path d="M436.968 701.303C448.547 710.792 475.334 707.209 464.887 695.172C453.033 681.506 423.283 690.095 436.968 701.303Z" fill="#2E60D6" style="fill:#2E60D6;fill:color(display-p3 0.1804 0.3765 0.8392);fill-opacity:1;"/>
</g>
</svg>
